<svg width="573" height="136" viewBox="0 0 573 136" fill="none" xmlns="http://www.w3.org/2000/svg">
<path d="M151.365 34.3234L146.289 39.3994C145.987 39.7005 145.81 40.1047 145.794 40.5308C145.778 40.9569 145.924 41.3733 146.203 41.6963C146.481 42.0192 146.871 42.2247 147.295 42.2715C147.719 42.3184 148.145 42.203 148.487 41.9486L148.676 41.7844L156.63 33.8306L156.785 33.6506L156.875 33.5201L156.988 33.3064L157.06 33.0994L157.096 32.9486L157.118 32.8091L157.125 32.5976L157.116 32.4649L157.08 32.2534L157.012 32.0284L156.909 31.8079L156.83 31.6841C156.771 31.5978 156.704 31.5172 156.63 31.4434L156.785 31.6211C156.738 31.5583 156.686 31.4989 156.63 31.4434L148.676 23.4896C148.375 23.1905 147.972 23.016 147.547 23.001C147.123 22.9861 146.708 23.1318 146.386 23.409C146.065 23.6862 145.859 24.0745 145.811 24.4965C145.763 24.9185 145.876 25.3431 146.127 25.6856L146.289 25.8746L151.365 30.9484H143.062C134.848 30.9484 129.263 35.6216 129.009 42.2816L129 42.7609C129 43.2084 129.178 43.6376 129.494 43.9541C129.811 44.2706 130.24 44.4484 130.688 44.4484C131.135 44.4484 131.564 44.2706 131.881 43.9541C132.197 43.6376 132.375 43.2084 132.375 42.7609C132.375 37.9729 136.182 34.5304 142.482 34.3324L143.062 34.3234H151.365Z" fill="#F26671"/>
<path d="M134.76 100.125L139.836 95.049C140.138 94.7479 140.315 94.3437 140.331 93.9175C140.347 93.4914 140.201 93.075 139.922 92.7521C139.644 92.4292 139.254 92.2236 138.83 92.1768C138.406 92.13 137.98 92.2454 137.638 92.4998L137.449 92.664L129.495 100.618L129.34 100.798L129.25 100.928L129.137 101.142L129.065 101.349L129.029 101.5L129.007 101.639L129 101.851L129.009 101.984L129.045 102.195L129.113 102.42L129.216 102.641L129.295 102.764C129.354 102.851 129.421 102.931 129.495 103.005L129.34 102.827C129.387 102.89 129.439 102.949 129.495 103.005L137.449 110.959C137.75 111.258 138.153 111.432 138.578 111.447C139.002 111.462 139.417 111.317 139.739 111.039C140.06 110.762 140.266 110.374 140.314 109.952C140.362 109.53 140.249 109.105 139.998 108.763L139.836 108.574L134.76 103.5H143.062C151.277 103.5 156.862 98.8268 157.116 92.1668L157.125 91.6875C157.125 91.24 156.947 90.8107 156.631 90.4943C156.314 90.1778 155.885 90 155.438 90C154.99 90 154.561 90.1778 154.244 90.4943C153.928 90.8107 153.75 91.24 153.75 91.6875C153.75 96.4755 149.943 99.918 143.643 100.116L143.062 100.125H134.76Z" fill="#F26671"/>
<path d="M15.7 101.9C12.7667 101.9 10.4667 101.1 8.8 99.5C7.2 97.8333 6.4 95.4667 6.4 92.4V40C6.4 33.6667 9.6 30.5 16 30.5H49.3C54.1 30.5 56.5 32.8333 56.5 37.5C56.5 42.3 54.1 44.7 49.3 44.7H24.8V58.9H47.1C51.9 58.9 54.3 61.2333 54.3 65.9C54.3 70.6333 51.9 73 47.1 73H24.8V92.4C24.8 98.7333 21.7667 101.9 15.7 101.9ZM253.99 102.1C249.79 102.1 246.057 101.067 242.79 99C239.59 96.9333 237.057 93.9667 235.19 90.1C233.39 86.2333 232.49 81.6667 232.49 76.4C232.49 71.0667 233.39 66.5 235.19 62.7C237.057 58.8333 239.59 55.8667 242.79 53.8C246.057 51.7333 249.79 50.7 253.99 50.7C257.123 50.7 259.99 51.3667 262.59 52.7C265.257 53.9667 267.29 55.6333 268.69 57.7V38.6C268.69 32.6 271.657 29.6 277.59 29.6C280.457 29.6 282.657 30.3667 284.19 31.9C285.723 33.4333 286.49 35.6667 286.49 38.6V92.9C286.49 98.9 283.557 101.9 277.69 101.9C272.423 101.9 269.523 99.4 268.99 94.4C267.657 96.7333 265.623 98.6 262.89 100C260.223 101.4 257.257 102.1 253.99 102.1ZM259.69 89C262.357 89 264.557 88 266.29 86C268.023 84 268.89 80.8 268.89 76.4C268.89 71.9333 268.023 68.7333 266.29 66.8C264.557 64.8 262.357 63.8 259.69 63.8C256.957 63.8 254.723 64.8 252.99 66.8C251.257 68.7333 250.39 71.9333 250.39 76.4C250.39 80.8 251.257 84 252.99 86C254.723 88 256.957 89 259.69 89ZM324.202 102.1C320.135 102.1 315.935 101.7 311.602 100.9C307.335 100.033 303.668 98.8333 300.602 97.3C298.802 96.4333 297.535 95.2667 296.802 93.8C296.068 92.3333 295.802 90.8333 296.002 89.3C296.202 87.7 296.768 86.3 297.702 85.1C298.635 83.8333 299.868 83 301.402 82.6C302.935 82.1333 304.668 82.3333 306.602 83.2C309.135 84.4667 312.002 85.4333 315.202 86.1C318.402 86.7 321.402 87 324.202 87C328.602 87 331.668 86.4333 333.402 85.3C335.202 84.1 336.102 82.6333 336.102 80.9C336.102 79.3667 335.468 78.1333 334.202 77.2C333.002 76.2667 330.835 75.4667 327.702 74.8L316.002 72.3C303.335 69.5667 297.002 62.9333 297.002 52.4C297.002 47.8 298.235 43.7667 300.702 40.3C303.235 36.8333 306.735 34.1667 311.202 32.3C315.668 30.3667 320.868 29.4 326.802 29.4C330.268 29.4 333.768 29.8 337.302 30.6C340.902 31.3333 344.002 32.4667 346.602 34C348.602 35.0667 349.868 36.5333 350.402 38.4C350.935 40.2 350.868 41.9667 350.202 43.7C349.535 45.4333 348.335 46.7 346.602 47.5C344.935 48.3 342.802 48.1667 340.202 47.1C338.202 46.2333 336.002 45.6 333.602 45.2C331.202 44.7333 328.868 44.5 326.602 44.5C322.868 44.5 320.002 45.1667 318.002 46.5C316.002 47.7667 315.002 49.4333 315.002 51.5C315.002 52.9667 315.602 54.1667 316.802 55.1C318.002 56.0333 320.135 56.8333 323.202 57.5L334.802 60C347.668 62.7333 354.102 69.2 354.102 79.4C354.102 84 352.868 88 350.402 91.4C347.935 94.8 344.468 97.4333 340.002 99.3C335.535 101.167 330.268 102.1 324.202 102.1ZM370.738 101.9C367.872 101.9 365.672 101.133 364.138 99.6C362.672 98.0667 361.938 95.8333 361.938 92.9V38.6C361.938 32.6 364.872 29.6 370.738 29.6C373.605 29.6 375.805 30.3667 377.338 31.9C378.938 33.4333 379.738 35.6667 379.738 38.6V57.9C383.272 53.1 388.405 50.7 395.138 50.7C401.005 50.7 405.338 52.4333 408.138 55.9C411.005 59.3667 412.438 64.7 412.438 71.9V92.9C412.438 95.8333 411.672 98.0667 410.138 99.6C408.605 101.133 406.405 101.9 403.538 101.9C400.672 101.9 398.472 101.133 396.938 99.6C395.405 98.0667 394.638 95.8333 394.638 92.9V72.6C394.638 69.6 394.105 67.4667 393.038 66.2C392.038 64.9333 390.538 64.3 388.538 64.3C385.872 64.3 383.738 65.1667 382.138 66.9C380.538 68.5667 379.738 70.8333 379.738 73.7V92.9C379.738 98.9 376.738 101.9 370.738 101.9ZM439.683 102.1C435.883 102.1 432.516 101.4 429.583 100C426.716 98.6 424.449 96.7 422.783 94.3C421.183 91.8333 420.383 89.0333 420.383 85.9C420.383 82.3667 421.316 79.5667 423.183 77.5C425.049 75.3667 428.049 73.8667 432.183 73C436.316 72.0667 441.816 71.6 448.683 71.6H452.483V70.2C452.483 67.8 451.849 66.1 450.583 65.1C449.383 64.1 447.283 63.6 444.283 63.6C442.616 63.6 440.783 63.8 438.783 64.2C436.849 64.5333 434.649 65.1667 432.183 66.1C429.983 66.9 428.149 66.8667 426.683 66C425.216 65.1333 424.249 63.9 423.783 62.3C423.383 60.6333 423.549 59 424.283 57.4C425.083 55.7333 426.583 54.5 428.783 53.7C431.983 52.5667 434.916 51.8 437.583 51.4C440.316 50.9333 442.816 50.7 445.083 50.7C453.283 50.7 459.349 52.4667 463.283 56C467.283 59.5333 469.283 65.1 469.283 72.7V92.9C469.283 98.9 466.549 101.9 461.083 101.9C455.883 101.9 453.116 99.2333 452.783 93.9C451.849 96.4333 450.249 98.4333 447.983 99.9C445.716 101.367 442.949 102.1 439.683 102.1ZM443.683 90.5C446.149 90.5 448.216 89.7 449.883 88.1C451.616 86.5 452.483 84.4 452.483 81.8V80H448.683C444.749 80 441.849 80.4333 439.983 81.3C438.183 82.1 437.283 83.4 437.283 85.2C437.283 86.7333 437.816 88 438.883 89C440.016 90 441.616 90.5 443.683 90.5ZM488.519 101.9C482.452 101.9 479.419 98.9 479.419 92.9V59.8C479.419 53.8667 482.319 50.9 488.119 50.9C490.852 50.9 492.952 51.6667 494.419 53.2C495.952 54.7333 496.719 56.9333 496.719 59.8V60.1C497.852 57.2333 499.685 54.9667 502.219 53.3C504.752 51.6333 507.752 50.7667 511.219 50.7C513.152 50.6333 514.585 51.1333 515.519 52.2C516.519 53.2 517.052 55.1 517.119 57.9C517.119 60.3 516.619 62.2 515.619 63.6C514.619 65 512.719 65.8333 509.919 66.1L507.619 66.3C504.085 66.6333 501.519 67.6333 499.919 69.3C498.319 70.9 497.519 73.3 497.519 76.5V92.9C497.519 98.9 494.519 101.9 488.519 101.9ZM548.699 102.1C542.699 102.1 537.499 101.067 533.099 99C528.766 96.8667 525.433 93.8667 523.099 90C520.766 86.1333 519.599 81.5667 519.599 76.3C519.599 71.3 520.699 66.8667 522.899 63C525.166 59.1333 528.233 56.1333 532.099 54C536.033 51.8 540.499 50.7 545.499 50.7C550.433 50.7 554.699 51.7333 558.299 53.8C561.966 55.8667 564.766 58.8333 566.699 62.7C568.699 66.5 569.699 70.9667 569.699 76.1C569.699 78.7 568.166 80 565.099 80H536.599C537.199 83.2 538.533 85.5 540.599 86.9C542.666 88.3 545.533 89 549.199 89C550.599 89 552.266 88.8333 554.199 88.5C556.133 88.1667 557.966 87.6333 559.699 86.9C561.833 86.1 563.633 86.1 565.099 86.9C566.566 87.6333 567.533 88.8 567.999 90.4C568.533 91.9333 568.466 93.5333 567.799 95.2C567.199 96.8 565.966 98.0333 564.099 98.9C561.766 100.033 559.266 100.833 556.599 101.3C553.999 101.833 551.366 102.1 548.699 102.1ZM546.299 62.2C543.633 62.2 541.433 63 539.699 64.6C538.033 66.2 536.966 68.5333 536.499 71.6H555.099C554.899 68.4667 554.033 66.1333 552.499 64.6C551.033 63 548.966 62.2 546.299 62.2Z" fill="#F26671"/>
<path d="M174 62.3722C176.438 70.0597 192 80.5597 192 80.5597C192 80.5597 210 68.3722 210 62.3722" stroke="#FB6E6E" stroke-width="37.5" stroke-linecap="round"/>
<path d="M193.517 43.619C193.364 35.8494 196.707 21.6391 211.306 26.9549C211.466 31.8064 208.132 41.9313 193.517 43.619Z" fill="#90C639"/>
<path d="M191.265 43.581C180.707 42.8701 161.829 36.6466 170.781 17.4397C177.382 17.7961 190.719 23.5234 191.265 43.581Z" fill="#90C639"/>
<path d="M79 62.3722C81.4375 70.0597 97 80.5597 97 80.5597C97 80.5597 115 68.3722 115 62.3722" stroke="#FB6E6E" stroke-width="37.5" stroke-linecap="round"/>
<path d="M98.517 43.619C98.3639 35.8494 101.707 21.6391 116.306 26.9549C116.466 31.8064 113.132 41.9313 98.517 43.619Z" fill="#90C639"/>
<path d="M96.2653 43.581C85.7071 42.8701 66.8288 36.6466 75.7813 17.4397C82.3818 17.7961 95.7191 23.5234 96.2653 43.581Z" fill="#90C639"/>
</svg>
